<?xml version="1.0" encoding="UTF-8" standalone="no"?>
<!DOCTYPE svg PUBLIC "-//W3C//DTD SVG 1.1//EN" "http://www.w3.org/Graphics/SVG/1.1/DTD/svg11.dtd">
<svg width="100%" height="100%" viewBox="0 0 647 69" version="1.1" xmlns="http://www.w3.org/2000/svg" xmlns:xlink="http://www.w3.org/1999/xlink" xml:space="preserve" xmlns:serif="http://www.serif.com/" style="fill-rule:evenodd;clip-rule:evenodd;stroke-linejoin:round;stroke-miterlimit:2;">
    <g transform="matrix(1,0,0,1,-483,-449)">
        <g transform="matrix(1.33333,0,0,1.33333,-168.725,0)">
            <g id="title">
                <g transform="matrix(0.83,0,0,0.83,426.753,277.768)">
                    <g id="path190150">
                        <path d="M124.341,122.32L119.588,122.32C119.084,122.32 118.724,121.96 118.724,121.456L118.724,103.238C118.724,101.726 117.716,100.718 116.204,100.718L83.801,100.718C82.289,100.718 81.281,101.726 81.281,103.238L81.281,121.456C81.281,121.96 80.921,122.32 80.417,122.32L75.52,122.32C75.088,122.32 74.8,122.032 74.8,121.6L74.8,72.78C74.8,72.275 75.16,71.915 75.664,71.915L80.417,71.915C80.921,71.915 81.281,72.275 81.281,72.78L81.281,91.717C81.281,93.229 82.289,94.237 83.801,94.237L116.204,94.237C117.716,94.237 118.724,93.229 118.724,91.717L118.724,72.636C118.724,72.203 119.012,71.915 119.444,71.915L124.485,71.915C124.917,71.915 125.205,72.203 125.205,72.636L125.205,121.456C125.205,121.96 124.845,122.32 124.341,122.32Z" style="fill:white;fill-rule:nonzero;"/>
                    </g>
                </g>
                <g transform="matrix(0.83,0,0,0.83,469.738,277.767)">
                    <g id="path190152">
                        <path d="M79.625,90.853L87.257,83.22C87.545,82.932 88.049,82.716 88.481,82.716L111.307,82.716C111.884,82.716 112.532,83.004 112.892,83.364L120.236,90.709C120.596,91.069 120.884,91.717 120.884,92.293L120.884,121.6C120.884,122.032 120.596,122.32 120.164,122.32L88.625,122.32C88.121,122.32 87.545,122.104 87.185,121.744L79.697,114.255C79.337,113.895 79.121,113.319 79.121,112.815L79.121,92.077C79.121,91.645 79.337,91.141 79.625,90.853ZM88.121,115.839L111.883,115.839C113.396,115.839 114.404,114.831 114.404,113.319L114.404,91.717C114.404,90.205 113.396,89.197 111.883,89.197L88.121,89.197C86.609,89.197 85.601,90.205 85.601,91.717L85.601,113.319C85.601,114.831 86.609,115.839 88.121,115.839Z" style="fill:white;fill-rule:nonzero;"/>
                    </g>
                </g>
                <g transform="matrix(0.83,0,0,0.83,507.994,277.767)">
                    <g id="path190154">
                        <path d="M118.724,89.197L89.561,89.197C88.049,89.197 87.041,90.205 87.041,91.717L87.041,113.319C87.041,114.831 88.049,115.839 89.561,115.839L118.724,115.839C119.156,115.839 119.444,116.127 119.444,116.559L119.444,121.6C119.444,122.032 119.156,122.32 118.724,122.32L90.137,122.32C89.561,122.32 88.913,122.032 88.553,121.672L81.209,114.327C80.848,113.967 80.56,113.319 80.56,112.743L80.56,92.077C80.56,91.645 80.777,91.141 81.064,90.853L88.697,83.22C88.985,82.932 89.489,82.716 89.921,82.716L118.724,82.716C119.156,82.716 119.444,83.004 119.444,83.436L119.444,88.477C119.444,88.909 119.156,89.197 118.724,89.197Z" style="fill:white;fill-rule:nonzero;"/>
                    </g>
                </g>
                <g transform="matrix(0.83,0,0,0.83,546.189,277.768)">
                    <g id="path190156">
                        <path d="M120.885,83.58L120.885,96.398C120.885,96.83 120.668,97.334 120.38,97.622L115.988,102.014C115.7,102.302 115.7,102.734 115.988,103.022L120.38,107.415C120.668,107.703 120.885,108.207 120.885,108.639L120.885,121.456C120.885,121.96 120.524,122.32 120.02,122.32L115.268,122.32C114.764,122.32 114.404,121.96 114.404,121.456L114.404,108.279C114.404,106.766 113.396,105.758 111.884,105.758L88.122,105.758C86.609,105.758 85.601,106.766 85.601,108.279L85.601,121.456C85.601,121.96 85.241,122.32 84.737,122.32L79.841,122.32C79.409,122.32 79.121,122.032 79.121,121.6L79.121,72.636C79.121,72.203 79.409,71.915 79.841,71.915L84.737,71.915C85.241,71.915 85.601,72.275 85.601,72.78L85.601,96.758C85.601,98.27 86.609,99.278 88.122,99.278L111.884,99.278C113.396,99.278 114.404,98.27 114.404,96.758L114.404,83.58C114.404,83.076 114.764,82.716 115.268,82.716L120.02,82.716C120.524,82.716 120.885,83.076 120.885,83.58Z" style="fill:white;fill-rule:nonzero;"/>
                    </g>
                </g>
                <g transform="matrix(0.83,0,0,0.83,585.64,277.767)">
                    <g id="path190158">
                        <path d="M92.802,99.278L111.884,99.278C113.396,99.278 114.404,98.27 114.404,96.758L114.404,91.717C114.404,90.205 113.396,89.197 111.884,89.197L88.121,89.197C86.609,89.197 85.601,90.205 85.601,91.717L85.601,113.319C85.601,114.831 86.609,115.839 88.121,115.839L117.284,115.839C117.716,115.839 118.004,116.127 118.004,116.559L118.004,121.6C118.004,122.032 117.716,122.32 117.284,122.32L88.698,122.32C88.121,122.32 87.473,122.032 87.113,121.672L79.769,114.327C79.409,113.967 79.121,113.319 79.121,112.743L79.121,92.077C79.121,91.645 79.337,91.141 79.625,90.853L87.257,83.22C87.545,82.932 88.049,82.716 88.481,82.716L111.523,82.716C111.955,82.716 112.459,82.932 112.748,83.22L120.38,90.853C120.668,91.141 120.884,91.645 120.884,92.077L120.884,96.398C120.884,96.83 120.668,97.334 120.38,97.622L112.748,105.254C112.459,105.542 111.955,105.758 111.523,105.758L92.802,105.758C92.37,105.758 92.082,105.47 92.082,105.038L92.082,99.998C92.082,99.566 92.37,99.278 92.802,99.278Z" style="fill:white;fill-rule:nonzero;"/>
                    </g>
                </g>
                <g transform="matrix(0.83,0,0,0.83,625.091,277.768)">
                    <g id="path190160">
                        <path d="M86.321,82.716L113.684,82.716C114.116,82.716 114.404,82.428 114.404,81.996L114.404,72.636C114.404,72.203 114.692,71.915 115.124,71.915L120.164,71.915C120.596,71.915 120.884,72.203 120.884,72.636L120.884,121.6C120.884,122.032 120.596,122.32 120.164,122.32L88.697,122.32C88.121,122.32 87.473,122.032 87.113,121.672L79.769,114.327C79.409,113.967 79.121,113.319 79.121,112.743L79.121,89.917C79.121,89.485 79.409,89.197 79.841,89.197L84.881,89.197C85.313,89.197 85.601,89.485 85.601,89.917L85.601,113.319C85.601,114.831 86.609,115.839 88.121,115.839L111.883,115.839C113.396,115.839 114.404,114.831 114.404,113.319L114.404,91.717C114.404,90.205 113.396,89.197 111.883,89.197L86.321,89.197C85.889,89.197 85.601,88.909 85.601,88.477L85.601,83.436C85.601,83.004 85.889,82.716 86.321,82.716Z" style="fill:white;fill-rule:nonzero;"/>
                    </g>
                </g>
                <g transform="matrix(0.83,0,0,0.83,668.128,277.768)">
                    <g id="path190162">
                        <path d="M74.8,81.276C74.8,80.844 75.017,80.34 75.305,80.052L82.937,72.42C83.225,72.132 83.729,71.915 84.161,71.915L121.604,71.915C122.037,71.915 122.325,72.203 122.325,72.636L122.325,77.676C122.325,78.108 122.037,78.396 121.604,78.396L83.801,78.396C82.289,78.396 81.281,79.404 81.281,80.916L81.281,93.517C81.281,93.949 80.993,94.237 80.561,94.237L75.521,94.237C75.088,94.237 74.8,93.949 74.8,93.517C74.8,93.517 74.8,81.276 74.8,81.276ZM74.8,116.559C74.8,116.127 75.088,115.839 75.521,115.839L116.204,115.839C117.716,115.839 118.724,114.831 118.724,113.319L118.724,101.438C118.724,101.006 119.012,100.718 119.444,100.718L124.485,100.718C124.917,100.718 125.205,101.006 125.205,101.438L125.205,112.743C125.205,113.319 124.917,113.967 124.557,114.327L117.212,121.672C116.852,122.032 116.204,122.32 115.628,122.32L75.521,122.32C75.088,122.32 74.8,122.032 74.8,121.6C74.8,121.6 74.8,116.559 74.8,116.559ZM118.004,100.718L82.001,100.718C81.569,100.718 81.281,100.43 81.281,99.998L81.281,94.957C81.281,94.525 81.569,94.237 82.001,94.237L118.004,94.237C118.436,94.237 118.724,94.525 118.724,94.957L118.724,99.998C118.724,100.43 118.436,100.718 118.004,100.718Z" style="fill:white;fill-rule:nonzero;"/>
                    </g>
                </g>
                <g transform="matrix(0.83,0,0,0.83,711.113,277.767)">
                    <g id="path190164">
                        <path d="M79.841,82.716L84.881,82.716C85.314,82.716 85.602,83.004 85.602,83.436L85.602,113.319C85.602,114.831 86.609,115.839 88.122,115.839L111.884,115.839C113.396,115.839 114.404,114.831 114.404,113.319L114.404,83.436C114.404,83.004 114.692,82.716 115.124,82.716L120.165,82.716C120.596,82.716 120.884,83.004 120.884,83.436L120.884,123.616C120.884,124.12 120.668,124.696 120.309,125.056L112.82,132.545C112.46,132.905 111.884,133.121 111.379,133.121L88.481,133.121C88.05,133.121 87.762,132.833 87.762,132.401L87.762,127.36C87.762,126.928 88.05,126.64 88.481,126.64L111.884,126.64C113.396,126.64 114.404,125.632 114.404,124.12L114.404,123.04C114.404,122.608 114.116,122.32 113.684,122.32L88.481,122.32C88.05,122.32 87.545,122.104 87.257,121.816L79.769,114.327C79.409,113.967 79.121,113.319 79.121,112.743L79.121,83.436C79.121,83.004 79.409,82.716 79.841,82.716Z" style="fill:white;fill-rule:nonzero;"/>
                    </g>
                </g>
                <g transform="matrix(0.83,0,0,0.83,750.563,277.767)">
                    <g id="path190166">
                        <path d="M79.121,92.077C79.121,91.645 79.337,91.141 79.625,90.853L87.257,83.22C87.545,82.932 88.05,82.716 88.481,82.716L117.284,82.716C117.716,82.716 118.004,83.004 118.004,83.436L118.004,88.477C118.004,88.909 117.716,89.197 117.284,89.197L88.122,89.197C86.609,89.197 85.602,90.205 85.602,91.717L85.602,98.558C85.602,98.99 85.313,99.278 84.881,99.278L79.841,99.278C79.409,99.278 79.121,98.99 79.121,98.558L79.121,92.077L79.121,92.077L79.121,92.077ZM79.121,116.559C79.121,116.127 79.409,115.839 79.841,115.839L111.884,115.839C113.396,115.839 114.404,114.831 114.404,113.319L114.404,106.478C114.404,106.046 114.692,105.758 115.124,105.758L120.165,105.758C120.596,105.758 120.884,106.046 120.884,106.478L120.884,112.743C120.884,113.319 120.596,113.967 120.236,114.327L112.892,121.672C112.532,122.032 111.884,122.32 111.308,122.32L79.841,122.32C79.409,122.32 79.121,122.032 79.121,121.6C79.121,121.6 79.121,116.559 79.121,116.559ZM86.321,99.278L113.684,99.278C114.116,99.278 114.404,99.566 114.404,99.998L114.404,105.038C114.404,105.47 114.116,105.758 113.684,105.758L86.321,105.758C85.89,105.758 85.602,105.47 85.602,105.038L85.602,99.998C85.602,99.566 85.89,99.278 86.321,99.278Z" style="fill:white;fill-rule:nonzero;"/>
                    </g>
                </g>
                <g transform="matrix(0.83,0,0,0.83,783.142,277.768)">
                    <g id="path190168">
                        <path d="M112.603,116.559L112.603,121.6C112.603,122.032 112.315,122.32 111.883,122.32L96.905,122.32C96.401,122.32 95.825,122.104 95.465,121.744L87.977,114.255C87.617,113.895 87.401,113.319 87.401,112.815L87.401,72.636C87.401,72.203 87.688,71.916 88.121,71.916L93.017,71.916C93.521,71.916 93.881,72.275 93.881,72.78L93.881,80.196C93.881,81.708 94.889,82.716 96.401,82.716L111.739,82.716C112.243,82.716 112.603,83.076 112.603,83.58L112.603,88.333C112.603,88.837 112.243,89.197 111.739,89.197L96.401,89.197C94.889,89.197 93.881,90.205 93.881,91.717L93.881,113.319C93.881,114.831 94.889,115.839 96.401,115.839L111.883,115.839C112.315,115.839 112.603,116.127 112.603,116.559Z" style="fill:white;fill-rule:nonzero;"/>
                    </g>
                </g>
                <g transform="matrix(0.83,0,0,0.83,815.693,277.767)">
                    <g id="path190170">
                        <path d="M92.802,99.278L111.884,99.278C113.396,99.278 114.404,98.27 114.404,96.758L114.404,91.717C114.404,90.205 113.396,89.197 111.884,89.197L88.121,89.197C86.609,89.197 85.601,90.205 85.601,91.717L85.601,113.319C85.601,114.831 86.609,115.839 88.121,115.839L117.284,115.839C117.716,115.839 118.004,116.127 118.004,116.559L118.004,121.6C118.004,122.032 117.716,122.32 117.284,122.32L88.698,122.32C88.121,122.32 87.473,122.032 87.113,121.672L79.769,114.327C79.409,113.967 79.121,113.319 79.121,112.743L79.121,92.077C79.121,91.645 79.337,91.141 79.625,90.853L87.257,83.22C87.545,82.932 88.049,82.716 88.481,82.716L111.523,82.716C111.955,82.716 112.459,82.932 112.748,83.22L120.38,90.853C120.668,91.141 120.884,91.645 120.884,92.077L120.884,96.398C120.884,96.83 120.668,97.334 120.38,97.622L112.748,105.254C112.459,105.542 111.955,105.758 111.523,105.758L92.802,105.758C92.37,105.758 92.082,105.47 92.082,105.038L92.082,99.998C92.082,99.566 92.37,99.278 92.802,99.278Z" style="fill:white;fill-rule:nonzero;"/>
                    </g>
                </g>
                <g transform="matrix(0.83,0,0,0.83,864.406,277.767)">
                    <g id="path190172">
                        <path d="M67.961,89.917C67.961,89.485 68.249,89.197 68.681,89.197L73.721,89.197C74.153,89.197 74.441,89.485 74.441,89.917L74.441,121.6C74.441,122.032 74.153,122.32 73.721,122.32L68.681,122.32C68.249,122.32 67.961,122.032 67.961,121.6L67.961,89.917ZM74.441,88.477L74.441,83.436C74.441,83.004 74.73,82.716 75.162,82.716L122.47,82.716C123.046,82.716 123.694,83.004 124.054,83.364L131.398,90.709C131.758,91.069 132.046,91.717 132.046,92.293L132.046,121.6C132.046,122.032 131.758,122.32 131.326,122.32L126.286,122.32C125.854,122.32 125.566,122.032 125.566,121.6L125.566,91.717C125.566,90.205 124.558,89.197 123.046,89.197L105.764,89.197C104.252,89.197 103.244,90.205 103.244,91.717L103.244,121.6C103.244,122.032 102.956,122.32 102.524,122.32L97.483,122.32C97.052,122.32 96.763,122.032 96.763,121.6L96.763,91.717C96.763,90.205 95.755,89.197 94.243,89.197L75.162,89.197C74.73,89.197 74.441,88.909 74.441,88.477Z" style="fill:white;fill-rule:nonzero;"/>
                    </g>
                </g>
            </g>
        </g>
    </g>
</svg>
